<svg width="19" height="18" viewBox="0 0 19 18" fill="none" xmlns="http://www.w3.org/2000/svg">
<path d="M6.27246 2.25C4.20471 2.25 2.52246 3.93225 2.52246 6V12C2.52246 14.0677 4.20471 15.75 6.27246 15.75H12.2725C14.3402 15.75 16.0225 14.0677 16.0225 12V6C16.0225 3.93225 14.3402 2.25 12.2725 2.25H6.27246ZM6.27246 3.75H12.2725C13.513 3.75 14.5225 4.7595 14.5225 6V12C14.5225 13.2405 13.513 14.25 12.2725 14.25H6.27246C5.03196 14.25 4.02246 13.2405 4.02246 12V6C4.02246 4.7595 5.03196 3.75 6.27246 3.75ZM13.0225 4.5C12.8235 4.5 12.6328 4.57902 12.4921 4.71967C12.3515 4.86032 12.2725 5.05109 12.2725 5.25C12.2725 5.44891 12.3515 5.63968 12.4921 5.78033C12.6328 5.92098 12.8235 6 13.0225 6C13.2214 6 13.4121 5.92098 13.5528 5.78033C13.6934 5.63968 13.7725 5.44891 13.7725 5.25C13.7725 5.05109 13.6934 4.86032 13.5528 4.71967C13.4121 4.57902 13.2214 4.5 13.0225 4.5ZM9.27246 5.25C7.20471 5.25 5.52246 6.93225 5.52246 9C5.52246 11.0677 7.20471 12.75 9.27246 12.75C11.3402 12.75 13.0225 11.0677 13.0225 9C13.0225 6.93225 11.3402 5.25 9.27246 5.25ZM9.27246 6.75C10.513 6.75 11.5225 7.7595 11.5225 9C11.5225 10.2405 10.513 11.25 9.27246 11.25C8.03196 11.25 7.02246 10.2405 7.02246 9C7.02246 7.7595 8.03196 6.75 9.27246 6.75Z" fill="white"/>
</svg>
