<svg width="19" height="18" viewBox="0 0 19 18" fill="none" xmlns="http://www.w3.org/2000/svg">
<path d="M9.28125 1.5C5.15175 1.5 1.79007 4.85878 1.78857 8.98828C1.78782 10.3083 2.13356 11.5969 2.78906 12.7324L1.77246 16.5L5.69678 15.5728C6.79103 16.1698 8.02286 16.4831 9.27686 16.4839H9.27979C13.4085 16.4839 16.7687 13.1244 16.771 8.99561C16.7725 6.99386 15.9941 5.1118 14.5796 3.6958C13.1651 2.28055 11.2853 1.50075 9.28125 1.5ZM9.27979 3C10.8818 3.00075 12.3873 3.62535 13.519 4.75635C14.6508 5.88885 15.2725 7.39364 15.271 8.99414C15.2695 12.2971 12.5828 14.9839 9.27832 14.9839C8.27857 14.9831 7.28827 14.7321 6.41602 14.2559L5.91064 13.9805L5.35254 14.1123L3.87598 14.4609L4.23633 13.1221L4.39893 12.5215L4.08838 11.9824C3.56488 11.0764 3.28782 10.0405 3.28857 8.98828C3.29007 5.68678 5.97754 3 9.27979 3ZM6.62988 5.53125C6.50463 5.53125 6.30212 5.57812 6.13037 5.76562C5.95862 5.95237 5.47412 6.40468 5.47412 7.32568C5.47412 8.24668 6.14502 9.13696 6.23877 9.26221C6.33177 9.38671 7.53377 11.3364 9.43652 12.0864C11.0175 12.7097 11.3386 12.5867 11.6821 12.5552C12.0256 12.5244 12.7903 12.1033 12.9463 11.666C13.1023 11.2288 13.1027 10.8526 13.0562 10.7754C13.0097 10.6974 12.8848 10.6509 12.6973 10.5571C12.5105 10.4634 11.5902 10.0115 11.4185 9.94922C11.2467 9.88697 11.1211 9.85547 10.9966 10.043C10.8721 10.2305 10.5143 10.6509 10.4048 10.7754C10.2953 10.9006 10.1865 10.9175 9.99902 10.8237C9.81152 10.7292 9.20867 10.5311 8.49317 9.89355C7.93666 9.3978 7.56116 8.78613 7.45166 8.59863C7.34291 8.41188 7.44141 8.30931 7.53516 8.21631C7.61916 8.13231 7.72119 7.99768 7.81494 7.88818C7.90794 7.77868 7.94019 7.70067 8.00244 7.57617C8.06469 7.45167 8.03283 7.3418 7.98633 7.24805C7.93983 7.1543 7.57568 6.22987 7.40918 5.85938C7.26893 5.54813 7.12081 5.54089 6.98731 5.53564C6.87856 5.53114 6.75438 5.53125 6.62988 5.53125Z" fill="white"/>
</svg>
